<?xml version="1.0" encoding="utf-8"?>
<!-- Generator: Adobe Illustrator 17.0.0, SVG Export Plug-In . SVG Version: 6.00 Build 0)  -->
<!DOCTYPE svg PUBLIC "-//W3C//DTD SVG 1.1//EN" "http://www.w3.org/Graphics/SVG/1.1/DTD/svg11.dtd">
<svg version="1.1" id="Layer_1" xmlns="http://www.w3.org/2000/svg" xmlns:xlink="http://www.w3.org/1999/xlink" x="0px" y="0px"
	 width="73px" height="73px" viewBox="0 0 73 73" enable-background="new 0 0 73 73" xml:space="preserve">
<g>
	<path fill="#030303" d="M59.928,72.857c-15.622,0-31.244,0-46.866,0c-3.038-0.809-3.874-2.972-3.865-5.548
		C9.26,52.734,9.228,38.158,9.228,23.582c0-0.229,0-0.46,0-0.68c-2.996-0.347-4.55-2.1-4.545-5.043c0.003-1.253-0.001-2.509,0-3.762
		c0.005-2.975,1.901-4.862,4.889-4.864C13.736,9.23,17.9,9.232,22.065,9.23c0.25,0,0.501,0,0.726,0
		c0.037-0.137,0.059-0.182,0.059-0.227c0.004-1.419,0.001-2.838,0.013-4.258c0.018-2.105,1.255-3.778,3.248-4.422
		c0.151-0.048,0.295-0.12,0.443-0.182c6.626,0,13.255,0,19.883,0c0.169,0.07,0.335,0.146,0.508,0.206
		c1.768,0.619,2.833,1.855,3.129,3.692c0.116,0.717,0.049,1.463,0.055,2.195c0.005,0.984,0.001,1.97,0.001,2.991
		c0.329,0,0.563,0,0.796,0c4.284,0.002,8.567-0.009,12.851,0.008c2.52,0.009,4.496,1.983,4.527,4.503
		c0.02,1.561,0.021,3.125-0.002,4.685c-0.029,2.093-1.488,3.858-3.541,4.319c-0.317,0.071-0.638,0.117-0.998,0.184
		c0,1.795,0,3.566,0,5.337c0,13.301,0.002,26.6,0,39.897c-0.001,2.284-1.313,3.981-3.509,4.566
		C60.141,72.758,60.036,72.813,59.928,72.857z M38.769,22.899c0,5.951,0,11.82,0,17.69c0,5.373-0.006,10.746,0.002,16.119
		c0.005,1.077-0.396,1.898-1.4,2.333c-1.573,0.679-3.148-0.488-3.148-2.306c-0.001-10.982,0-21.964,0.001-32.946
		c0-0.296,0-0.594,0-0.885c-2.326,0-4.541,0-6.816,0c0,0.219,0,0.402,0,0.587c0,5.705,0,11.409,0,17.112
		c0,5.373,0.001,10.746-0.002,16.119c-0.001,1.149-0.498,1.963-1.406,2.329c-1.589,0.645-3.138-0.505-3.138-2.331
		c0-10.98,0-21.964,0-32.945c0-0.297,0-0.591,0-0.865c-3.091,0-6.064,0-9.037,0c0,15.151,0,30.262,0,45.365
		c15.144,0,30.235,0,45.35,0c0-15.142,0-30.25,0-45.358c-3.033,0-6.023,0-9.045,0c0,0.218,0,0.382,0,0.546
		c0,6.674,0.001,13.349,0.001,20.023c0,4.428,0,8.854-0.002,13.279c-0.002,1.127-0.524,1.946-1.447,2.302
		c-1.599,0.613-3.097-0.541-3.097-2.387c0-10.959,0-21.917,0-32.876c0-0.298,0-0.595,0-0.905
		C43.27,22.899,41.055,22.899,38.769,22.899z M63.729,13.825c-18.186,0-36.32,0-54.446,0c0,1.524,0,2.998,0,4.461
		c18.176,0,36.292,0,54.446,0C63.729,16.795,63.729,15.338,63.729,13.825z M27.44,9.181c6.068,0,12.085,0,18.088,0
		c0-1.523,0-2.997,0-4.459c-6.057,0-12.055,0-18.088,0C27.44,6.214,27.44,7.671,27.44,9.181z"/>
</g>
</svg>
