<?xml version="1.0" encoding="utf-8"?>
<!-- Generator: Adobe Illustrator 17.0.0, SVG Export Plug-In . SVG Version: 6.00 Build 0)  -->
<!DOCTYPE svg PUBLIC "-//W3C//DTD SVG 1.1//EN" "http://www.w3.org/Graphics/SVG/1.1/DTD/svg11.dtd">
<svg version="1.1" id="Layer_1" xmlns="http://www.w3.org/2000/svg" xmlns:xlink="http://www.w3.org/1999/xlink" x="0px" y="0px"
	 width="73px" height="73px" viewBox="0 0 73 73" enable-background="new 0 0 73 73" xml:space="preserve">
<g>
	<path fill-rule="evenodd" clip-rule="evenodd" fill="#030303" d="M9.234,48.53c2.031,2.017,3.919,3.893,5.746,5.705
		C27.369,41.844,39.805,29.41,52.283,16.93c-0.102-0.11-0.286-0.32-0.482-0.518c-2.25-2.262-4.506-4.518-6.75-6.786
		c-1.239-1.252-1.229-2.695,0.086-3.901c4.42-4.06,9.585-5.389,15.321-3.677c5.644,1.684,9.297,5.543,10.698,11.272
		c1.387,5.665-0.115,10.66-4.162,14.851c-2.271,2.351-4.615,4.631-6.928,6.942C48.267,46.911,36.465,58.705,24.68,70.517
		c-0.792,0.794-1.643,1.171-2.777,1.164c-5.883-0.034-11.767-0.015-17.651-0.017c-1.935,0-2.902-0.959-2.902-2.881
		c-0.002-5.963,0.009-11.925-0.01-17.888c-0.003-0.953,0.305-1.706,0.977-2.378C13.956,36.894,25.586,25.26,37.22,13.63
		c1.003-1.002,2.044-1.228,3.114-0.697c1.002,0.498,1.601,1.546,1.32,2.665c-0.148,0.594-0.531,1.199-0.969,1.64
		c-5.341,5.384-10.711,10.74-16.074,16.103c-4.9,4.9-9.8,9.803-14.705,14.697C9.706,48.237,9.445,48.377,9.234,48.53z M55.994,20.78
		C43.602,33.171,31.165,45.605,18.79,57.978c1.822,1.836,3.71,3.738,5.497,5.539c12.399-12.399,24.832-24.833,37.225-37.225
		C59.7,24.482,57.82,22.604,55.994,20.78z M65.078,22.389C67.439,18.81,67.234,13,63.254,9.256
		c-3.979-3.741-9.746-3.451-12.65-1.328C55.416,12.737,60.236,17.552,65.078,22.389z M19.85,66.605
		c-4.492-4.489-8.977-8.97-13.428-13.419c0,4.405,0,8.906,0,13.419C10.956,66.605,15.438,66.605,19.85,66.605z"/>
</g>
</svg>
