<?xml version="1.0" encoding="utf-8"?>
<!-- Generator: Adobe Illustrator 17.0.0, SVG Export Plug-In . SVG Version: 6.00 Build 0)  -->
<!DOCTYPE svg PUBLIC "-//W3C//DTD SVG 1.1//EN" "http://www.w3.org/Graphics/SVG/1.1/DTD/svg11.dtd">
<svg version="1.1" id="Layer_1" xmlns="http://www.w3.org/2000/svg" xmlns:xlink="http://www.w3.org/1999/xlink" x="0px" y="0px"
	 width="75px" height="75px" viewBox="0 0 75 75" enable-background="new 0 0 75 75" xml:space="preserve">
<g>
	<path fill="#030303" d="M39.704,71.414c-10.904,0-21.808,0-32.712,0c-0.157-0.07-0.311-0.152-0.475-0.211
		c-0.828-0.291-1.497-0.791-1.943-1.547C4.344,69.268,4.189,68.834,4,68.422C4,48.111,4,27.8,4,7.49
		c0.071-0.158,0.154-0.31,0.211-0.473C4.512,6.17,5.022,5.491,5.805,5.044C6.183,4.83,6.596,4.677,6.992,4.497
		c20.312,0,40.622,0,60.933,0c0.474,0.231,0.974,0.423,1.418,0.701c0.88,0.553,1.264,1.458,1.575,2.399c0,20.239,0,40.477,0,60.717
		c-0.245,0.527-0.442,1.084-0.746,1.572c-0.535,0.865-1.446,1.209-2.354,1.527c-5.879,0-11.759,0-17.638,0c0-8.615,0-17.23,0-25.902
		c0.285,0,0.493,0,0.704,0c2.458,0,4.916-0.014,7.374,0.012c0.509,0.006,0.655-0.162,0.715-0.652c0.358-2.951,0.746-5.9,1.146-8.845
		c0.066-0.491-0.04-0.651-0.563-0.647c-2.938,0.022-5.878,0.001-8.816,0.019c-0.451,0.003-0.567-0.138-0.564-0.575
		c0.022-1.923-0.006-3.847,0.018-5.771c0.011-0.691,0.057-1.394,0.189-2.069c0.252-1.287,1.02-2.189,2.287-2.576
		c0.59-0.18,1.22-0.299,1.835-0.316c1.832-0.054,3.668-0.047,5.502-0.05c0.338,0,0.525-0.054,0.523-0.46
		c-0.013-2.726-0.008-5.45-0.003-8.176c0-0.274-0.072-0.416-0.384-0.441c-3.247-0.279-6.498-0.587-9.755-0.197
		c-2.226,0.267-4.293,1.019-6.067,2.428c-3.013,2.387-4.323,5.637-4.496,9.365c-0.126,2.702-0.058,5.413-0.074,8.12
		c-0.004,0.711-0.001,0.712-0.692,0.712c-2.457,0.001-4.915,0.001-7.373,0.001c-0.205,0-0.411,0-0.622,0c0,3.417,0,6.739,0,10.143
		c2.905,0,5.777,0,8.688,0c0,0.256,0,0.432,0,0.609c0,8.229,0,16.459-0.003,24.688C39.748,71.025,39.72,71.221,39.704,71.414z"/>
</g>
</svg>
