<?xml version="1.0" encoding="utf-8"?>
<!-- Generator: Adobe Illustrator 17.0.0, SVG Export Plug-In . SVG Version: 6.00 Build 0)  -->
<!DOCTYPE svg PUBLIC "-//W3C//DTD SVG 1.1//EN" "http://www.w3.org/Graphics/SVG/1.1/DTD/svg11.dtd">
<svg version="1.1" id="Layer_1" xmlns="http://www.w3.org/2000/svg" xmlns:xlink="http://www.w3.org/1999/xlink" x="0px" y="0px"
	 width="75px" height="75px" viewBox="0 0 75 75" enable-background="new 0 0 75 75" xml:space="preserve">
<g>
	<path fill="#030303" d="M4.027,51.031c0-8.953,0-17.904,0-26.857c0.107-0.767,0.267-1.529,0.313-2.299
		C4.849,13.21,10.351,6.657,18.747,4.839c1.782-0.386,3.613-0.545,5.423-0.809c8.953,0,17.904,0,26.857,0
		c0.71,0.106,1.417,0.267,2.131,0.306c9.951,0.546,17.369,7.724,17.617,17.65c0.261,10.447,0.271,20.911-0.012,31.357
		c-0.262,9.763-7.654,17.162-17.416,17.423c-10.501,0.281-21.022,0.258-31.524,0.004c-8.675-0.209-15.268-6.044-17.019-14.455
		C4.441,54.576,4.281,52.794,4.027,51.031z M37.619,64.828c0-0.006,0-0.012,0-0.019c4.921,0,9.847,0.121,14.762-0.038
		c4.008-0.13,7.566-1.508,10.021-4.919c1.654-2.299,2.372-4.96,2.393-7.735c0.069-9.563,0.181-19.128-0.005-28.687
		c-0.159-8.19-4.742-12.837-12.888-13.017c-9.501-0.212-19.015-0.216-28.516-0.005c-8.227,0.183-12.8,4.734-12.978,12.916
		c-0.211,9.557-0.203,19.125,0.006,28.683c0.173,7.956,4.854,12.523,12.778,12.792C27.996,64.96,32.81,64.828,37.619,64.828z"/>
	<path fill="#030303" d="M37.45,54.81c-9.624-0.093-17.195-7.808-17.078-17.398c0.119-9.625,7.842-17.168,17.442-17.035
		c9.553,0.133,17.049,7.773,16.991,17.316C54.748,47.306,47.046,54.903,37.45,54.81z M48.72,37.628
		c0.007-6.252-4.896-11.165-11.138-11.16c-6.245,0.006-11.131,4.92-11.117,11.178c0.014,6.159,4.899,11.056,11.051,11.078
		C43.773,48.747,48.713,43.855,48.72,37.628z"/>
	<path fill="#030303" d="M55.482,15.686c2.305-0.012,4.021,1.684,4.028,3.978c0.006,2.245-1.782,4.073-3.991,4.08
		c-2.168,0.007-4.073-1.874-4.09-4.041C51.411,17.506,53.236,15.696,55.482,15.686z"/>
</g>
</svg>
