<?xml version="1.0" encoding="utf-8"?>
<!-- Generator: Adobe Illustrator 17.0.0, SVG Export Plug-In . SVG Version: 6.00 Build 0)  -->
<!DOCTYPE svg PUBLIC "-//W3C//DTD SVG 1.1//EN" "http://www.w3.org/Graphics/SVG/1.1/DTD/svg11.dtd">
<svg version="1.1" id="Layer_1" xmlns="http://www.w3.org/2000/svg" xmlns:xlink="http://www.w3.org/1999/xlink" x="0px" y="0px"
	 width="60px" height="67.75px" viewBox="0 0 60 67.75" enable-background="new 0 0 60 67.75" xml:space="preserve">
<path fill="#FFFFFF" d="M30,10.764c-14.386,0-26.09,11.703-26.09,26.089c0,14.388,11.704,26.094,26.09,26.094
	c14.387,0,26.091-11.706,26.091-26.094C56.091,22.467,44.387,10.764,30,10.764 M31.951,20.754v-6.002
	c2.346,0.203,4.618,0.772,6.763,1.696L31.951,20.754z M52.19,36.853c0,11.661-8.682,21.117-20.239,22.106V45.762l19.917-12.68
	C52.081,34.33,52.19,35.597,52.19,36.853 M31.951,41.139v-15.76L42.6,18.598c3.724,2.581,6.628,6.311,8.203,10.536L31.951,41.139z
	 M28.05,35.783v23.176C16.493,57.97,7.812,48.514,7.812,36.853c0-3.871,1.013-7.674,2.933-11.017L28.05,35.783z M28.05,14.752
	v16.534l-15.063-8.661C16.808,18.05,22.137,15.264,28.05,14.752"/>
</svg>
