<?xml version="1.0" encoding="utf-8"?>
<!-- Generator: Adobe Illustrator 17.0.0, SVG Export Plug-In . SVG Version: 6.00 Build 0)  -->
<!DOCTYPE svg PUBLIC "-//W3C//DTD SVG 1.1//EN" "http://www.w3.org/Graphics/SVG/1.1/DTD/svg11.dtd">
<svg version="1.1" id="Layer_1" xmlns="http://www.w3.org/2000/svg" xmlns:xlink="http://www.w3.org/1999/xlink" x="0px" y="0px"
	 width="93.833px" height="75px" viewBox="0 0 93.833 75" enable-background="new 0 0 93.833 75" xml:space="preserve">
<path fill="#030303" d="M90.986,9.334c0.003-2.361-0.877-4.057-2.613-5.039L88.06,4.118H5.973L5.712,4.232
	C4.389,4.815,3.424,5.926,2.926,7.445l-0.078,0.24v59.632l0.078,0.239c0.498,1.519,1.462,2.629,2.786,3.212l0.261,0.114h81.879
	l0.265-0.119c1.907-0.857,2.872-2.575,2.868-5.104C90.956,46.873,90.956,27.923,90.986,9.334z M7.681,62.462v-50.51l28.356,26.155
	L7.681,62.462z M42.867,44.424l1.341,1.23c0.559,0.516,1.174,1.019,2.007,1.019c0.823,0,1.443-0.497,2.008-1.007l1.542-1.39
	c1.039-0.935,2.079-1.872,3.153-2.851c8.674,7.351,17.357,14.689,26.041,22.027l2.428,2.053H11.963l12.65-10.871
	c5.065-4.35,10.131-8.699,15.189-13.06C40.818,42.55,41.859,43.501,42.867,44.424z M46.239,40.609L12.855,9.808l67.89-0.334
	L46.239,40.609z M56.733,37.991L86.084,11.5v51.294L56.733,37.991z"/>
</svg>
