<?xml version="1.0" encoding="utf-8"?>
<!-- Generator: Adobe Illustrator 19.0.0, SVG Export Plug-In . SVG Version: 6.00 Build 0)  -->
<svg version="1.1" id="Layer_1" xmlns="http://www.w3.org/2000/svg" xmlns:xlink="http://www.w3.org/1999/xlink" x="0px" y="0px"
	 viewBox="-291 415.59003 11.3 11.3" style="enable-background:new -291 415.59003 11.3 11.3;" xml:space="preserve">
<style type="text/css">
	.st0{fill:#E56B38;}
</style>
<g>
	<g>
		<path class="st0" d="M-285.35571,426.45142c-2.45209,0-4.5947-1.74408-5.0947-4.1474
			c-0.58691-2.81299,1.22461-5.57858,4.03711-6.1651c0.35159-0.07318,0.70999-0.11029,1.06549-0.11029
			c2.45209,0,4.59659,1.7446,5.0986,4.14841c0.58591,2.8125-1.22659,5.57721-4.03812,6.16309
			C-284.6398,426.41342-284.99921,426.45142-285.35571,426.45142z M-285.34781,416.22882c-0.3418,0-0.68661,0.03561-1.02451,0.1059
			c-2.70499,0.564-4.4462,3.22372-3.88278,5.92831c0.48148,2.31049,2.54199,3.98819,4.89938,3.98819
			c0.3428,0,0.68851-0.0361,1.0274-0.10638c2.7041-0.56451,4.44629-3.22272,3.88379-5.92682
			C-280.92792,417.90652-282.98941,416.22882-285.34781,416.22882z"/>
	</g>
</g>
<g>
	<path class="st0" d="M-287.62891,420.58746c0.01709,0.11865,0.09375,0.25977,0.31641,0.25977
		c0.2002,0,0.27148-0.08691,0.27148-0.1709c0-0.08887-0.09131-0.1333-0.28662-0.18262
		c-0.23242-0.05713-0.48193-0.12109-0.48193-0.40039c0-0.11865,0.08887-0.3833,0.48438-0.3833
		c0.34863,0,0.47949,0.24463,0.50684,0.37842l-0.24463,0.04443c-0.02246-0.07422-0.09912-0.17578-0.26221-0.17578
		c-0.1875,0-0.22461,0.09424-0.22461,0.13867c0,0.08154,0.09863,0.11865,0.2915,0.16797
		c0.2124,0.0542,0.47705,0.11377,0.47705,0.4126c0,0.18799-0.13867,0.41797-0.53418,0.41797
		c-0.39795,0-0.54346-0.2793-0.56592-0.4624L-287.62891,420.58746z"/>
	<path class="st0" d="M-286.31885,420.09821c0.03467-0.25244,0.26709-0.38818,0.49951-0.38818
		c0.26465,0,0.49414,0.14111,0.49414,0.41016v0.65039c0,0.04932,0.02002,0.07666,0.06934,0.07666
		c0.03223,0,0.05713-0.00781,0.05713-0.00781l0.06152,0.21533c-0.04932,0.02734-0.10107,0.03955-0.15088,0.03955
		c-0.11328,0-0.19238-0.03711-0.23242-0.10156c-0.08643,0.07422-0.20264,0.10156-0.3335,0.10156
		c-0.29639,0-0.50928-0.14355-0.50928-0.40283c0-0.30664,0.25244-0.38574,0.53174-0.42041
		c0.13086-0.01709,0.25928-0.04688,0.25928-0.16797c0-0.10889-0.12109-0.146-0.24707-0.146
		c-0.14111,0-0.22021,0.04199-0.25488,0.18555L-286.31885,420.09821z M-285.57227,420.41705
		c-0.02734,0.04199-0.11133,0.05908-0.26465,0.0791c-0.16309,0.02197-0.2666,0.06152-0.2666,0.19531
		c0,0.16797,0.21484,0.15576,0.27441,0.15576c0.05908,0,0.25684-0.02979,0.25684-0.19775V420.41705z"/>
	<path class="st0" d="M-284.69482,419.32672h0.25928v1.73047h-0.25928V419.32672z"/>
	<path class="st0" d="M-282.80566,420.69635c-0.0791,0.25928-0.2666,0.39795-0.53418,0.39795
		c-0.33594,0-0.57813-0.24219-0.57813-0.69482c0-0.44727,0.23535-0.68945,0.57324-0.68945
		c0.34668,0,0.58105,0.24219,0.58105,0.69482v0.07129h-0.89746c0.01563,0.21533,0.0791,0.37109,0.32129,0.37109
		c0.15137,0,0.24023-0.06445,0.29004-0.22266L-282.80566,420.69635z M-283.03027,420.25885
		c-0.01953-0.13867-0.07227-0.30176-0.31445-0.30176c-0.2373,0-0.28906,0.16309-0.30859,0.30176H-283.03027z"/>
</g>
</svg>
