<?xml version="1.0" encoding="utf-8"?>
<!-- Generator: Adobe Illustrator 17.0.0, SVG Export Plug-In . SVG Version: 6.00 Build 0)  -->
<!DOCTYPE svg PUBLIC "-//W3C//DTD SVG 1.1//EN" "http://www.w3.org/Graphics/SVG/1.1/DTD/svg11.dtd">
<svg version="1.1" id="Layer_1" xmlns="http://www.w3.org/2000/svg" xmlns:xlink="http://www.w3.org/1999/xlink" x="0px" y="0px"
	 width="18px" height="18px" viewBox="0 0 18 18" enable-background="new 0 0 18 18" xml:space="preserve">
<path fill="none" d="z"/>
<image overflow="visible" enable-background="new    " width="0" height="449382016" id="wa.svg" xlink:href="745CCB25.jpg" >
</image>
<g>
	<path d="M8.634,0.187c0.357,0,0.713,0,1.07,0c0.04,0.009,0.081,0.023,0.121,0.027c0.899,0.071,1.77,0.269,2.605,0.61
		c1.469,0.601,2.692,1.53,3.649,2.795c0.902,1.193,1.462,2.534,1.652,4.023c0.025,0.199,0.055,0.398,0.082,0.597
		c0,0.357,0,0.713,0,1.07c-0.009,0.04-0.023,0.08-0.027,0.121c-0.07,0.832-0.248,1.638-0.55,2.418
		c-0.439,1.137-1.097,2.129-1.954,2.99c-0.549,0.55-1.165,1.016-1.843,1.396c-1.236,0.694-2.565,1.071-3.982,1.116
		C7.912,17.4,6.451,17.065,5.08,16.344c-0.052-0.028-0.129-0.043-0.183-0.026c-0.698,0.217-1.394,0.441-2.091,0.662
		c-0.558,0.177-1.118,0.351-1.675,0.531c-0.297,0.096-0.592,0.201-0.888,0.302c-0.019-0.019-0.038-0.038-0.056-0.056
		c0.029-0.063,0.063-0.123,0.086-0.188c0.088-0.257,0.171-0.516,0.258-0.774c0.393-1.158,0.789-2.316,1.177-3.476
		c0.022-0.065,0.009-0.158-0.021-0.222c-0.104-0.22-0.226-0.431-0.336-0.648c-0.318-0.627-0.533-1.292-0.67-1.978
		c-0.25-1.251-0.228-2.498,0.078-3.74c0.316-1.283,0.901-2.43,1.747-3.442c0.649-0.776,1.412-1.42,2.291-1.926
		c0.996-0.574,2.058-0.945,3.198-1.092C8.208,0.244,8.421,0.215,8.634,0.187z M2.365,15.681c0.135-0.04,0.239-0.069,0.341-0.101
		c0.773-0.245,1.546-0.488,2.317-0.739c0.101-0.033,0.175-0.016,0.263,0.033c0.316,0.174,0.628,0.358,0.956,0.504
		c1.225,0.545,2.509,0.712,3.836,0.554c0.75-0.089,1.467-0.299,2.152-0.62c0.559-0.262,1.082-0.583,1.556-0.975
		c0.654-0.542,1.202-1.178,1.641-1.91c0.477-0.795,0.785-1.649,0.924-2.562c0.161-1.058,0.091-2.101-0.213-3.132
		c-0.275-0.932-0.729-1.767-1.342-2.512c-0.668-0.814-1.48-1.453-2.429-1.919c-0.654-0.321-1.337-0.547-2.054-0.655
		c-1.608-0.243-3.141-0.003-4.58,0.765c-1.091,0.582-1.98,1.394-2.664,2.427C2.592,5.557,2.256,6.336,2.064,7.177
		C1.912,7.845,1.862,8.519,1.9,9.203c0.036,0.651,0.164,1.283,0.374,1.898c0.222,0.651,0.54,1.255,0.932,1.821
		c0.033,0.047,0.042,0.134,0.024,0.189c-0.218,0.658-0.445,1.314-0.668,1.97C2.498,15.271,2.437,15.462,2.365,15.681z"/>
	<path fill-rule="evenodd" clip-rule="evenodd" d="M4.933,6.768c0.032-0.706,0.328-1.279,0.854-1.73
		C5.899,4.941,6.07,4.889,6.221,4.868c0.183-0.025,0.377-0.012,0.56,0.02C6.873,4.904,6.988,4.978,7.03,5.059
		c0.145,0.278,0.264,0.568,0.388,0.856c0.119,0.275,0.22,0.558,0.35,0.828C7.88,6.976,7.825,7.175,7.687,7.361
		c-0.139,0.188-0.29,0.368-0.443,0.545C7.121,8.049,7.092,8.163,7.19,8.325c0.41,0.674,0.909,1.271,1.546,1.746
		c0.397,0.297,0.834,0.519,1.283,0.72c0.278,0.124,0.38,0.107,0.574-0.124c0.196-0.233,0.387-0.47,0.575-0.71
		c0.148-0.189,0.264-0.238,0.473-0.143c0.579,0.266,1.152,0.544,1.729,0.814c0.139,0.065,0.19,0.17,0.184,0.315
		c-0.011,0.327-0.062,0.645-0.219,0.936c-0.123,0.228-0.331,0.379-0.538,0.524c-0.363,0.256-0.778,0.392-1.211,0.406
		c-0.297,0.01-0.608-0.058-0.895-0.147c-0.504-0.157-1-0.346-1.491-0.543c-0.521-0.209-0.983-0.523-1.418-0.875
		C6.963,10.584,6.3,9.782,5.709,8.914C5.381,8.432,5.114,7.926,4.998,7.353C4.959,7.161,4.954,6.963,4.933,6.768z"/>
</g>
</svg>
