<?xml version="1.0" encoding="utf-8"?>
<!-- Generator: Adobe Illustrator 17.0.0, SVG Export Plug-In . SVG Version: 6.00 Build 0)  -->
<!DOCTYPE svg PUBLIC "-//W3C//DTD SVG 1.1//EN" "http://www.w3.org/Graphics/SVG/1.1/DTD/svg11.dtd">
<svg version="1.1" id="Layer_1" xmlns="http://www.w3.org/2000/svg" xmlns:xlink="http://www.w3.org/1999/xlink" x="0px" y="0px"
	 width="42px" height="20px" viewBox="2 0 42 20" enable-background="new 2 0 42 20" xml:space="preserve">
<g>
	<path d="M6.317,11.233l0.398-0.484l1.229,1.008l1.021-1.247L7.737,9.503l0.397-0.485l3.084,2.527l-0.396,0.484l-1.394-1.141
		l-1.021,1.247L9.8,13.276l-0.396,0.485L6.317,11.233z"/>
	<path d="M11.77,8.387c-0.792-1.225-0.584-2.1,0.134-2.563c0.728-0.47,1.605-0.297,2.397,0.927c0.795,1.229,0.589,2.096-0.139,2.566
		C13.444,9.78,12.564,9.616,11.77,8.387z M13.774,7.091C13.162,6.143,12.73,6,12.229,6.326c-0.493,0.318-0.545,0.773,0.067,1.72
		c0.609,0.943,1.048,1.086,1.541,0.768C14.34,8.489,14.384,8.033,13.774,7.091z"/>
	<path d="M16.41,3.68l0.523-0.137l2.295,2.209l-0.694-2.632l0.591-0.155l1.02,3.862l-0.491,0.13L17.325,4.69l0.711,2.694
		l-0.607,0.159L16.41,3.68z"/>
	<path d="M22.585,2.614l2.47,0.085l-0.021,0.599l-1.842-0.064l-0.035,0.992l1.677,0.059l-0.021,0.599l-1.677-0.06l-0.041,1.204
		l1.842,0.064l-0.021,0.599l-2.469-0.085L22.585,2.614z"/>
	<path d="M27.92,5.828c-0.069,0.325-0.176,0.952,0.602,1.217c0.41,0.141,0.819,0.087,0.963-0.334
		c0.122-0.355-0.033-0.607-0.55-0.946c-0.63-0.414-1.086-0.842-0.854-1.52c0.176-0.513,0.751-0.859,1.55-0.585
		c0.647,0.221,1.011,0.743,0.949,1.434l-0.589-0.076C30,4.78,29.938,4.397,29.437,4.227c-0.404-0.139-0.697-0.005-0.772,0.217
		c-0.105,0.307,0.223,0.545,0.624,0.833c0.482,0.352,1.087,0.77,0.79,1.638c-0.234,0.686-0.92,0.981-1.751,0.697
		c-1.121-0.383-1.14-1.3-1.001-1.879L27.92,5.828z"/>
	<path d="M34.111,6.658l-0.997-0.701l0.344-0.489l2.508,1.763l-0.345,0.489l-0.997-0.701l-1.949,2.774l-0.513-0.36L34.111,6.658z"/>
	<path d="M37.021,11.532L38,9.131l0.41,0.519l-0.756,1.775l1.898-0.33l0.435,0.551l-2.599,0.381l-1.348,1.063l-0.381-0.482
		L37.021,11.532z"/>
</g>
</svg>
