<?xml version="1.0" encoding="utf-8"?>
<!-- Generator: Adobe Illustrator 17.0.0, SVG Export Plug-In . SVG Version: 6.00 Build 0)  -->
<!DOCTYPE svg PUBLIC "-//W3C//DTD SVG 1.1//EN" "http://www.w3.org/Graphics/SVG/1.1/DTD/svg11.dtd">
<svg version="1.1" id="Layer_1" xmlns="http://www.w3.org/2000/svg" xmlns:xlink="http://www.w3.org/1999/xlink" x="0px" y="0px"
	 width="42px" height="20px" viewBox="2 0 42 20" enable-background="new 2 0 42 20" xml:space="preserve">
<g>
	<path d="M12.562,11.625c-0.442,0.442-1.001,0.526-1.522,0.308c-0.59,0.499-1.438,0.465-2.417-0.464
		c-1.059-1.003-1.062-1.9-0.475-2.521c0.596-0.628,1.488-0.669,2.547,0.333c0.864,0.82,1.029,1.573,0.746,2.145
		c0.265,0.102,0.491-0.03,0.691-0.209L12.562,11.625z M10.264,9.737C9.444,8.961,8.993,8.925,8.582,9.359
		c-0.404,0.426-0.348,0.88,0.471,1.655c0.814,0.771,1.278,0.812,1.683,0.386C11.146,10.967,11.078,10.509,10.264,9.737z"/>
	<path d="M11.888,5.876l0.55-0.302l1.267,2.302c0.238,0.434,0.614,0.631,1.128,0.348c0.524-0.29,0.554-0.708,0.319-1.132
		L13.879,4.78l0.55-0.303l1.256,2.282c0.409,0.745,0.194,1.571-0.564,1.989c-0.748,0.412-1.566,0.154-1.977-0.59L11.888,5.876z"/>
	<path d="M18.491,3.144l0.536-0.114l2.186,3.617l-0.631,0.134l-0.463-0.806L18.686,6.28l-0.101,0.925l-0.619,0.131L18.491,3.144z
		 M19.835,5.488l-0.896-1.524l-0.187,1.754L19.835,5.488z"/>
	<path d="M23.496,2.63l0.625,0.045l-0.247,3.38l1.722,0.125l-0.044,0.597l-2.346-0.172L23.496,2.63z"/>
	<path d="M28.727,3.455l0.6,0.185l-1.179,3.817l-0.6-0.186L28.727,3.455z"/>
	<path d="M32.861,5.869l-1.049-0.626l0.307-0.514l2.637,1.574l-0.308,0.515l-1.049-0.626l-1.741,2.916l-0.539-0.323L32.861,5.869z"
		/>
	<path d="M36.117,10.509l0.792-2.474l0.45,0.487l-0.618,1.829l1.869-0.476l0.476,0.517l-2.563,0.58l-1.262,1.166l-0.418-0.453
		L36.117,10.509z"/>
</g>
</svg>
