<?xml version="1.0" encoding="utf-8"?>
<!-- Generator: Adobe Illustrator 17.0.0, SVG Export Plug-In . SVG Version: 6.00 Build 0)  -->
<!DOCTYPE svg PUBLIC "-//W3C//DTD SVG 1.1//EN" "http://www.w3.org/Graphics/SVG/1.1/DTD/svg11.dtd">
<svg version="1.1" id="Layer_1" xmlns="http://www.w3.org/2000/svg" xmlns:xlink="http://www.w3.org/1999/xlink" x="0px" y="0px"
	 width="42px" height="20px" viewBox="2 0 42 20" enable-background="new 2 0 42 20" xml:space="preserve">
<g>
	<path d="M6.162,16.977c0.321,0.09,0.939,0.236,1.256-0.521c0.167-0.4,0.141-0.813-0.27-0.984c-0.347-0.144-0.608-0.006-0.981,0.486
		c-0.455,0.602-0.912,1.028-1.574,0.753c-0.5-0.209-0.807-0.807-0.482-1.585c0.264-0.633,0.809-0.961,1.493-0.854L5.49,14.854
		c-0.237-0.024-0.623,0.012-0.827,0.501c-0.165,0.396-0.049,0.697,0.166,0.787c0.301,0.124,0.56-0.187,0.874-0.568
		c0.382-0.46,0.839-1.034,1.687-0.682c0.668,0.279,0.918,0.983,0.58,1.793c-0.457,1.095-1.372,1.053-1.942,0.877L6.162,16.977z"/>
	<path d="M6.446,11.116l0.375-0.504l3.209,2.386l-0.375,0.503L6.446,11.116z"/>
	<path d="M9.1,8.005l0.632-0.486l2.71,1.781L11.41,6.225l0.631-0.487l2.436,3.159L13.98,9.279L12.22,6.995l0.966,2.896l-0.365,0.281
		l-2.55-1.675l1.76,2.283l-0.496,0.384L9.1,8.005z"/>
	<path d="M15.268,4.122l1.387-0.477c0.626-0.216,1.324,0.111,1.547,0.76c0.223,0.647-0.079,1.332-0.749,1.561L16.658,6.24
		l0.502,1.458l-0.594,0.204L15.268,4.122z M17.258,5.4c0.335-0.116,0.461-0.467,0.35-0.791c-0.136-0.394-0.478-0.494-0.759-0.397
		l-0.793,0.273l0.408,1.188L17.258,5.4z"/>
	<path d="M20.82,2.738l0.626-0.037l0.202,3.384l1.723-0.103l0.036,0.597l-2.35,0.14L20.82,2.738z"/>
	<path d="M26.136,2.882l0.618,0.105L26.083,6.92l-0.619-0.105L26.136,2.882z"/>
	<path d="M31.451,7.484c-0.383,0.672-1.09,0.965-1.809,0.647c-0.782-0.343-1.129-1.168-0.539-2.507
		c0.587-1.334,1.432-1.642,2.213-1.297c0.72,0.316,0.981,1.036,0.745,1.771l-0.563-0.134c0.137-0.438,0.082-0.866-0.424-1.089
		c-0.536-0.237-0.944-0.031-1.398,1.001c-0.452,1.028-0.33,1.473,0.206,1.709c0.501,0.22,0.858-0.027,1.089-0.423L31.451,7.484z"/>
	<path d="M35.179,6.685l0.497,0.382l-2.434,3.16l-0.497-0.382L35.179,6.685z"/>
	<path d="M38.231,10.393l-0.765-0.95l0.466-0.376l1.925,2.389l-0.467,0.376l-0.766-0.951l-2.641,2.13l-0.394-0.488L38.231,10.393z"
		/>
	<path d="M39.661,15.877l1.607-2.033l0.249,0.612L40.3,15.948l1.912,0.211l0.265,0.648l-2.599-0.354L38.291,17.1l-0.232-0.568
		L39.661,15.877z"/>
</g>
</svg>
