<?xml version="1.0" encoding="utf-8"?>
<!-- Generator: Adobe Illustrator 17.0.0, SVG Export Plug-In . SVG Version: 6.00 Build 0)  -->
<!DOCTYPE svg PUBLIC "-//W3C//DTD SVG 1.1//EN" "http://www.w3.org/Graphics/SVG/1.1/DTD/svg11.dtd">
<svg version="1.1" id="Layer_1" xmlns="http://www.w3.org/2000/svg" xmlns:xlink="http://www.w3.org/1999/xlink" x="0px" y="0px"
	 width="404.997px" height="63.333px" viewBox="0 0 404.997 63.333" enable-background="new 0 0 404.997 63.333"
	 xml:space="preserve">
<g>
	<path fill-rule="evenodd" clip-rule="evenodd" d="M257.44,32.645c-1.496,1.188-2.971,2.404-4.497,3.55
		c-0.566,0.426-1.224,0.785-1.895,1.001c-1.899,0.609-3.516-0.704-3.094-2.63c0.313-1.432,0.99-2.787,1.563-4.153
		c0.257-0.611,0.653-1.163,0.815-2.021c-1.632,0.734-3.251,1.497-4.896,2.197c-4.059,1.725-8.122,3.444-12.203,5.117
		c-1.015,0.415-2.088,0.74-3.165,0.937c-1.851,0.338-2.964-0.569-2.8-2.438c0.14-1.593,0.634-3.153,0.921-4.49
		c-5.307,2.61-10.738,5.386-16.276,7.928c-1.357,0.622-3.071,0.67-4.609,0.62c-1.323-0.043-2.479-1.482-2.373-2.667
		c0.044-0.496,0.595-0.947,0.915-1.419c0.416,0.335,0.856,0.646,1.244,1.011c0.489,0.463,0.85,1.214,1.416,1.412
		c1.583,0.559,4.541-0.741,5.211-2.269c0.16-0.365-0.149-1.251-0.503-1.462c-0.765-0.456-1.682-0.694-2.564-0.906
		c-1.346-0.326-2.35-0.901-2.262-2.661c-1.351,0.598-2.597,1.091-3.79,1.688c-4.465,2.231-8.867,4.598-13.396,6.687
		c-1.312,0.606-2.982,0.659-4.471,0.594c-1.354-0.06-2.275-1.131-2.405-2.484c-0.049-0.508,0.629-1.087,0.976-1.633
		c0.404,0.364,0.839,0.699,1.202,1.102c0.335,0.371,0.503,0.962,0.899,1.198c1.52,0.904,5.334-0.596,5.781-2.301
		c0.098-0.376-0.292-1.123-0.662-1.325c-0.787-0.429-1.702-0.631-2.574-0.893c-1.679-0.502-1.897-0.713-2.37-2.668
		c-1.601,0.833-3.167,1.594-4.68,2.448c-3.872,2.186-7.926,4.012-12.3,4.761c-4.609,0.789-6.846-0.973-8.336-5.698
		c-4.306,1.686-8.617,3.391-12.943,5.057c-0.891,0.343-1.822,0.626-2.76,0.792c-2.045,0.362-3.279-0.83-2.933-2.892
		c0.235-1.401,0.688-2.768,1.044-4.156c-0.076-0.007-0.186-0.053-0.24-0.017c-4.688,3.165-10.184,4.475-15.305,6.644
		c-0.695,0.293-1.487,0.392-2.246,0.496c-2.067,0.283-3.121-0.762-2.817-2.853c0.115-0.794,0.414-1.574,0.713-2.327
		c0.3-0.754,0.705-1.467,1.165-2.406c-0.322,0.1-0.474,0.125-0.604,0.191c-4.504,2.265-8.998,4.551-13.517,6.785
		c-0.627,0.311-1.369,0.452-2.074,0.53c-1.834,0.204-2.847-0.839-2.542-2.684c0.234-1.417,0.648-2.804,1.029-4.399
		c-1.125,0.179-2.139,0.473-3.151,0.467c-1.27-0.007-2.536-0.279-3.807-0.394c-0.429-0.039-0.94-0.079-1.294,0.108
		c-1.443,0.764-2.83,1.635-4.257,2.431c-2.314,1.289-4.807,2.011-7.454,1.866c-1.15-0.063-2.277-0.545-3.571-0.877
		c-0.825,0.721-1.794,1.653-2.855,2.468c-1.674,1.283-3.497,2.228-5.719,1.871c-2.254-0.362-3.199-1.908-2.172-3.962
		c0.775-1.549,1.924-2.913,3.108-4.657c-2.341,1.137-4.423,2.2-6.548,3.167c-2.094,0.953-4.195,1.912-6.359,2.682
		c-1.991,0.707-3.91,0.489-5.362-1.406c-1.826,3.15-3.551,6.192-5.344,9.193c-0.713,1.194-1.514,2.351-2.407,3.414
		c-0.342,0.406-1.275,0.844-1.544,0.667c-0.446-0.295-0.851-1.109-0.782-1.641c0.196-1.512,0.431-3.081,1.026-4.466
		c1.845-4.29,4.725-7.773,8.604-10.436c0.732-0.503,1.21-1.375,1.805-2.077c-0.1-0.121-0.201-0.242-0.301-0.363
		c-0.442,0.285-0.885,0.57-1.328,0.854c-3.849,2.467-7.727,4.874-12.155,6.211c-2.076,0.627-4,0.632-5.598-1.37
		c-0.337,0.558-0.623,1.025-0.905,1.495c-2.1,3.505-4.149,7.041-6.345,10.485c-0.413,0.646-1.41,0.921-2.138,1.367
		c-0.224-0.867-0.76-1.789-0.622-2.595c1.024-5.943,4.59-10.229,9.233-13.794c0.841-0.646,1.489-1.542,2.226-2.324
		c-0.116-0.123-0.231-0.246-0.347-0.369c-0.425,0.278-0.837,0.579-1.278,0.831c-9.101,5.192-18.212,10.37-28.196,13.741
		c-2.302,0.777-4.681,0.992-7.117,0.538c-3.349-0.628-4.774-3.227-3.374-6.327c1.23-2.721,3.539-4.521,5.616-6.512
		c0.858-0.822,1.798-1.558,2.69-2.324c-0.105-0.146-0.125-0.208-0.162-0.221c-3.953-1.398-4.997-3.451-3.116-7.265
		c3.894-7.896,9.997-13.473,18.42-16.258c1.494-0.494,3.244-0.513,4.835-0.352c2.713,0.274,4.397,2.728,3.569,5.317
		c-0.54,1.689-1.471,3.348-2.575,4.746c-2.856,3.617-6.931,5.568-10.976,7.51c-0.129,0.062-0.27,0.111-0.411,0.134
		c-0.815,0.135-1.838,0.667-2.173-0.571c-0.319-1.18,0.683-1.404,1.546-1.626c3.255-0.838,6.372-2.059,8.801-4.422
		c1.343-1.308,2.525-2.921,3.331-4.611c1.372-2.878-0.245-4.86-3.456-4.457c-3.194,0.4-6.161,1.523-8.887,3.214
		c-4.407,2.732-7.668,6.536-10.052,11.105c-0.417,0.799-0.739,1.685-0.91,2.568c-0.383,1.978,0.483,2.916,2.509,2.808
		c0.567-0.03,1.13-0.197,1.687-0.335c0.605-0.15,1.205-0.491,1.799-0.474c0.68,0.019,1.352,0.341,2.027,0.532
		c-0.367,0.594-0.602,1.368-1.125,1.751c-2.243,1.649-4.756,2.977-6.81,4.823c-1.71,1.536-3.082,3.529-4.293,5.51
		c-0.992,1.622-0.325,3.06,1.577,3.302c2.103,0.269,4.309,0.207,6.413-0.103c4.389-0.645,8.303-2.704,12.207-4.672
		c6.342-3.197,12.999-5.837,18.671-10.248c0.691-0.538,1.297-1.275,1.729-2.041c1.868-3.307,3.575-6.708,5.511-9.972
		c0.843-1.422,2.087-2.609,3.175-3.881c0.212-0.248,0.514-0.484,0.819-0.576c1.136-0.343,2.413-0.979,3.408,0
		c0.961,0.945,0.377,2.217-0.259,3.052c-2.383,3.128-4.894,6.159-7.387,9.202c-0.422,0.515-0.957,0.958-1.5,1.352
		c-2.524,1.836-4.175,4.315-5.464,7.108c-0.527,1.142-0.595,2.316,0.278,3.061c0.652,0.555,1.938,0.946,2.696,0.689
		c2.437-0.827,4.851-1.821,7.103-3.062c2.857-1.573,5.565-3.423,8.292-5.223c0.525-0.347,0.926-0.964,1.242-1.535
		c1.864-3.364,3.594-6.807,5.563-10.107c0.894-1.498,2.229-2.735,3.374-4.082c0.121-0.143,0.287-0.276,0.46-0.342
		c1.168-0.447,2.483-1.103,3.537-0.162c1.047,0.934,0.375,2.19-0.201,3.175c-2.302,3.941-5.206,7.417-8.714,10.32
		c-2.426,2.008-4.281,4.342-5.592,7.2c-0.561,1.222-0.618,2.396,0.284,3.173c0.641,0.553,1.927,0.875,2.721,0.633
		c1.996-0.611,3.854-1.657,5.807-2.426c4.155-1.634,8.333-3.21,12.508-4.792c1.05-0.398,2.106-0.704,3.104,0.199
		c1.345,1.216,2.405,2.483,1.222,4.397c-0.173,0.28-0.274,0.605-0.439,0.977c1.612,1.659,3.589,1.488,5.361,0.76
		c2.835-1.166,5.542-2.651,8.268-4.068c0.325-0.169,0.381-0.797,0.653-1.14c0.652-0.824,1.254-1.757,2.09-2.334
		c0.366-0.253,1.476,0.064,1.84,0.479c0.276,0.314-0.003,1.227-0.207,1.813c-0.143,0.412-0.577,0.724-0.88,1.08
		c0.038,0.157,0.077,0.315,0.116,0.473c1.215-0.211,2.454-0.335,3.636-0.663c0.819-0.227,1.533-0.818,2.347-1.085
		c0.483-0.159,1.069-0.005,1.608,0.007c-0.034,0.506,0.054,1.061-0.126,1.509c-0.462,1.156-1.178,2.225-1.525,3.408
		c-0.219,0.744-0.23,1.837,0.183,2.381c0.286,0.377,1.529,0.297,2.216,0.057c5.507-1.928,10.769-4.38,15.552-7.759
		c0.615-0.434,1.03-1.153,1.787-2.028c-1.4,0.095-2.355,0.267-3.284,0.176c-0.446-0.044-0.844-0.582-1.264-0.897
		c0.456-0.241,0.961-0.752,1.36-0.68c3.077,0.559,4.768-0.934,6.333-3.432c1.616-2.578,3.774-4.831,5.808-7.125
		c0.608-0.686,1.544-1.159,2.419-1.51c1.018-0.409,1.849,0.287,1.522,1.319c-0.323,1.017-0.92,1.998-1.591,2.842
		c-1.787,2.247-3.678,4.411-5.8,6.931c1.604-0.382,2.851-0.633,4.07-0.978c2.081-0.589,4.151-1.218,6.213-1.873
		c0.8-0.254,1.587-0.46,1.899,0.559c0.305,0.998-0.468,1.401-1.248,1.586c-2.803,0.667-5.617,1.286-8.43,1.913
		c-0.469,0.104-0.947,0.202-1.424,0.224c-4.064,0.186-6.442,2.618-7.95,6.085c-0.625,1.435-0.979,2.988-1.601,4.942
		c1.401-0.122,2.494-0.043,3.48-0.331c5.692-1.656,11.288-3.565,16.157-7.096c0.485-0.352,0.908-0.831,1.257-1.323
		c3.529-4.981,6.959-10.034,10.608-14.924c0.828-1.111,2.306-1.87,3.636-2.436c1.406-0.599,2.441,0.535,2.029,2.048
		c-0.148,0.544-0.436,1.076-0.763,1.541c-3.873,5.498-8.235,10.54-13.656,14.595c-1.766,1.321-3.189,5.601-2.653,7.876
		c4.795-0.305,9.104-2.188,13.361-4.199c1.848-0.873,3.626-1.779,5.077-3.395c1.608-1.792,3.928-2.445,6.335-2.082
		c0.78,0.119,1.799,0.729,2.079,1.385c0.193,0.453-0.545,1.535-1.124,2.046c-2.058,1.816-4.507,2.721-7.288,2.583
		c0.202,1.888,1.616,3.133,3.813,3.499c2.914,0.486,5.701-0.152,8.301-1.285c3.87-1.684,7.595-3.697,11.42-5.489
		c0.937-0.439,2.011-0.668,3.046-0.779c0.424-0.045,0.91,0.48,1.367,0.746c-0.275,0.405-0.466,0.942-0.845,1.185
		c-0.653,0.418-1.424,0.653-2.145,0.965c-0.011,0.195-0.022,0.391-0.033,0.586c0.946,0.318,1.883,0.673,2.842,0.947
		c2.034,0.581,2.646,1.305,2.666,3.376c2.759-1.461,5.461-2.923,8.191-4.33c1.922-0.991,3.861-1.953,5.834-2.838
		c0.775-0.348,1.657-0.595,2.497-0.611c0.551-0.01,1.111,0.477,1.667,0.742c-0.38,0.433-0.696,0.957-1.154,1.274
		c-0.558,0.385-1.236,0.596-1.861,0.883c-0.011,0.188-0.021,0.376-0.032,0.564c0.991,0.333,1.976,0.694,2.978,0.995
		c1.913,0.576,2.45,1.232,2.483,3.241c0.411-0.184,0.8-0.328,1.16-0.523c4.134-2.249,8.277-4.478,12.377-6.787
		c0.621-0.349,1.094-1.029,1.525-1.634c3.518-4.929,6.938-9.932,10.567-14.778c0.804-1.072,2.241-1.798,3.53-2.344
		c1.396-0.59,2.364,0.376,2.048,1.888c-0.133,0.635-0.464,1.269-0.842,1.807c-3.864,5.507-8.248,10.528-13.679,14.571
		c-1.674,1.245-3.131,5.791-2.544,7.76c4.02-0.127,7.711-1.54,11.26-3.228c3.725-1.772,7.277-3.902,10.941-5.807
		c0.914-0.475,2.09-1.466,2.967-0.258c0.852,1.173-0.597,1.769-1.157,2.587c-1.236,1.807-2.438,3.643-3.552,5.527
		c-0.246,0.416-0.066,1.084-0.084,1.638c0.525-0.091,1.158-0.022,1.558-0.297c2.452-1.681,4.855-3.433,7.268-5.172
		c0.787-0.567,1.566-1.744,2.575-0.88c1.012,0.868-0.017,1.824-0.498,2.658c-2.251,3.902-4.515,7.796-6.5,11.891
		c0.331-0.36,0.634-0.753,0.997-1.078c3.756-3.363,7.492-6.753,11.315-10.043c0.756-0.65,1.856-0.903,2.798-1.34
		c0.136,0.204,0.271,0.408,0.407,0.613c-0.611,0.586-1.137,1.322-1.848,1.739c-7.403,4.328-12.631,10.738-17.131,17.836
		c-1.079,1.703-1.95,3.536-2.918,5.31c-0.23,0.422-0.468,0.839-0.695,1.264c-0.394,0.731-0.972,1.156-1.758,0.691
		c-0.792-0.468-0.627-1.134-0.229-1.868c3.62-6.681,7.219-13.37,10.804-20.07c0.577-1.078,1.054-2.212,1.575-3.32
		C257.61,32.766,257.525,32.705,257.44,32.645z M83.466,28.008c-3.572,0.279-6.054,2.299-7.883,5.244
		c-0.757,1.219-0.434,1.754,0.949,1.895c2.827,0.287,5.07-0.763,6.738-3.022c0.249-0.337,0.329-0.862,0.335-1.301
		C83.617,29.937,83.524,29.05,83.466,28.008z M243.965,11.319c-2.587,1.08-9.655,9.703-10.171,12.303
		C237.877,19.983,241.508,16.152,243.965,11.319z M160.374,11.076c-2.834,1.61-9.558,9.855-10.24,12.447
		C153.846,20.816,159.44,14.073,160.374,11.076z M55.2,10.943c-3.883,2.461-5.889,6.359-7.961,10.208
		C50.529,18.244,53.57,15.142,55.2,10.943z M73.283,11.011c-2.494,0.959-7.221,7.201-7.942,10.274
		C68.551,18.182,71.599,15.129,73.283,11.011z M56.915,34.114c-0.111-0.092-0.222-0.185-0.333-0.277
		c-2.84,2.258-5.121,4.894-5.856,8.576c0.148,0.102,0.296,0.202,0.444,0.303C53.085,39.847,55,36.981,56.915,34.114z M38.793,34.265
		c-0.133-0.108-0.266-0.215-0.399-0.323c-2.701,2.246-4.946,4.795-5.656,8.363c0.162,0.108,0.324,0.217,0.486,0.325
		C35.08,39.842,36.937,37.053,38.793,34.265z M170.148,27.03c-0.071-0.16-0.142-0.32-0.212-0.481
		c-2.253-0.522-4.438,0.565-5.057,2.971C166.843,28.593,168.495,27.811,170.148,27.03z M137.519,16.011
		c-0.13-0.118-0.259-0.236-0.389-0.353c-1.643,1.944-3.286,3.889-4.929,5.833c0.131,0.11,0.262,0.22,0.393,0.33
		C134.236,19.885,135.877,17.948,137.519,16.011z"/>
	<path fill-rule="evenodd" clip-rule="evenodd" d="M361.645,40.009c0-5.748,0-11.311,0-16.946c2.025,0,3.992-0.133,5.931,0.042
		c1.512,0.137,2.765,1.015,3.123,2.603c0.364,1.609,0.502,3.266-0.869,4.582c-0.208,0.2-0.455,0.357-0.792,0.617
		c2.22,1.094,2.892,2.821,2.577,4.986c-0.253,1.737-1.101,3.075-2.834,3.672c-0.63,0.216-1.304,0.4-1.963,0.423
		C365.143,40.048,363.464,40.009,361.645,40.009z M363.936,37.764c1.811-0.229,3.876,0.679,5.001-1.29
		c0.451-0.791,0.463-2.28,0.005-3.057c-1.142-1.935-3.189-1.075-5.006-1.224C363.936,34.097,363.936,35.837,363.936,37.764z
		 M363.949,30.046c1.578,0.025,3.264,0.392,4.193-1.17c0.407-0.683,0.471-2.016,0.063-2.649c-0.962-1.491-2.656-1.103-4.257-1.088
		C363.949,26.809,363.949,28.362,363.949,30.046z"/>
	<path fill-rule="evenodd" clip-rule="evenodd" d="M297.424,31.571c0.338-1.852,0.511-3.632,1.007-5.317
		c0.698-2.372,2.465-3.558,4.83-3.562c2.405-0.004,4.108,1.138,4.897,3.486c1.183,3.522,1.172,7.089-0.018,10.607
		c-0.763,2.255-2.506,3.438-4.79,3.458c-2.288,0.021-4.102-1.118-4.827-3.383C297.973,35.144,297.773,33.318,297.424,31.571z
		 M306.908,31.551c-0.322-1.559-0.539-3.125-0.989-4.621c-0.369-1.225-1.285-2.025-2.674-2.005
		c-1.328,0.019-2.167,0.831-2.563,1.977c-1.049,3.033-1.059,6.113,0.027,9.139c0.408,1.137,1.253,1.955,2.579,1.955
		c1.319,0,2.207-0.784,2.58-1.938C306.332,34.619,306.562,33.102,306.908,31.551z"/>
	<path fill-rule="evenodd" clip-rule="evenodd" d="M283.54,35.318c0,1.607,0,3.039,0,4.588c-0.748,0-1.394,0-2.16,0
		c0-5.534,0-11.131,0-17.014c1.929,0.085,3.906-0.035,5.8,0.309c2.373,0.431,3.415,2.299,3.82,4.538
		c0.8,4.428-1.594,7.403-6.001,7.489C284.576,35.237,284.153,35.28,283.54,35.318z M283.636,32.969
		c1.804,0.191,3.452,0.203,4.532-1.479c0.885-1.379,0.8-3.797-0.128-5.058c-0.905-1.231-2.537-1.637-4.404-1.091
		C283.636,27.857,283.636,30.376,283.636,32.969z"/>
	<path fill-rule="evenodd" clip-rule="evenodd" d="M325.615,26.192c-0.668,0.391-1.276,0.747-1.957,1.146
		c-0.27-0.449-0.476-0.871-0.753-1.24c-0.696-0.925-1.692-1.466-2.761-1.047c-0.693,0.272-1.438,1.004-1.682,1.698
		c-0.373,1.06,0.336,1.947,1.264,2.5c0.946,0.563,1.962,1.008,2.923,1.546c1.495,0.836,2.872,1.792,3.149,3.679
		c0.387,2.628-0.731,4.701-2.942,5.448c-2.946,0.995-5.928-0.148-7.46-2.988c0.601-0.397,1.22-0.808,1.756-1.162
		c0.804,0.682,1.473,1.464,2.317,1.918c1.414,0.761,3.105,0.225,3.784-1.004c0.7-1.267,0.26-2.529-1.306-3.481
		c-0.982-0.597-2.049-1.054-3.043-1.633c-2.354-1.371-3.284-3.242-2.769-5.462c0.446-1.917,1.884-3.203,3.805-3.402
		C322.66,22.426,324.428,23.462,325.615,26.192z"/>
	<path fill-rule="evenodd" clip-rule="evenodd" d="M334.135,35.621c0.767,1.443,1.775,2.346,3.326,2.384
		c1.265,0.03,2.303-0.467,2.715-1.712c0.393-1.186-0.05-2.202-1.113-2.852c-0.98-0.601-2.018-1.106-3.025-1.661
		c-1.654-0.913-3.054-2.034-3.256-4.098c-0.204-2.082,0.862-3.939,2.664-4.658c2.11-0.841,4.83-0.207,6.031,1.437
		c0.336,0.459,0.581,0.985,0.959,1.637c-0.688,0.428-1.315,0.818-2.016,1.255c-0.277-0.464-0.483-0.888-0.762-1.256
		c-0.696-0.924-1.693-1.465-2.762-1.046c-0.693,0.273-1.436,1.006-1.68,1.7c-0.371,1.061,0.338,1.947,1.266,2.5
		c0.946,0.563,1.962,1.008,2.924,1.547c1.494,0.838,2.871,1.791,3.147,3.68c0.385,2.629-0.734,4.701-2.944,5.447
		c-2.947,0.994-5.929-0.15-7.459-2.989C332.752,36.536,333.372,36.127,334.135,35.621z"/>
	<path fill-rule="evenodd" clip-rule="evenodd" d="M397.452,25.077c0,2.029,0,3.832,0,5.805c1.712,0,3.372,0,5.153,0
		c0,0.804,0,1.438,0,2.214c-1.686,0-3.352,0-5.126,0c0,1.589,0,3.04,0,4.631c2.055,0,4.056,0,6.147,0c0,0.784,0,1.431,0,2.189
		c-2.783,0-5.547,0-8.428,0c0-5.571,0-11.166,0-16.863c2.772,0,5.538,0,8.413,0c0,0.602,0,1.199,0,2.024
		C401.601,25.077,399.568,25.077,397.452,25.077z"/>
	<path fill-rule="evenodd" clip-rule="evenodd" d="M379.541,39.9c0-5.63,0-11.185,0-16.844c0.702,0,1.348,0,2.155,0
		c0,4.814,0,9.638,0,14.619c2,0,3.847,0,5.794,0c0,0.805,0,1.451,0,2.225C384.914,39.9,382.307,39.9,379.541,39.9z"/>
	<path fill-rule="evenodd" clip-rule="evenodd" d="M350.373,39.91c0-5.614,0-11.171,0-16.843c0.708,0,1.386,0,2.142,0
		c0,5.619,0,11.174,0,16.843C351.832,39.91,351.188,39.91,350.373,39.91z"/>
</g>
</svg>
