<?xml version="1.0" encoding="utf-8"?>
<!-- Generator: Adobe Illustrator 17.0.0, SVG Export Plug-In . SVG Version: 6.00 Build 0)  -->
<!DOCTYPE svg PUBLIC "-//W3C//DTD SVG 1.1//EN" "http://www.w3.org/Graphics/SVG/1.1/DTD/svg11.dtd">
<svg version="1.1" id="Layer_1" xmlns="http://www.w3.org/2000/svg" xmlns:xlink="http://www.w3.org/1999/xlink" x="0px" y="0px"
	 width="66.866px" height="12.5px" viewBox="0 0 66.866 12.5" enable-background="new 0 0 66.866 12.5" xml:space="preserve">
<path d="M3.367,3.754c-1.08,0-1.549,0.958-1.845,2.394l-0.02-0.019c0.152-1.03,0.203-1.825,0.244-2.273H0.218L0.156,4.498h0.815
	C0.86,5.914,0.769,7.524,0.555,9.114h0.774c0.377-3.444,1.04-4.606,2.069-4.606c0.122,0,0.244,0.019,0.346,0.041l0.123-0.744
	C3.744,3.773,3.57,3.754,3.367,3.754"/>
<path d="M8.694,3.754c-0.826,0-1.376,0.315-1.834,0.855c-0.459,0.55-0.744,1.325-0.744,2.243c0,1.702,0.652,2.364,1.946,2.364
	c0.745,0,1.336-0.234,1.59-0.387l0.092-0.775C9.266,8.359,8.716,8.523,8.267,8.523c-0.805,0-1.335-0.377-1.335-1.448
	c1.773-0.202,3.21-0.876,3.21-2.13C10.142,4.345,9.705,3.754,8.694,3.754 M6.932,6.506c0.112-1.143,0.652-2.11,1.621-2.11
	c0.54,0,0.773,0.316,0.773,0.602C9.326,5.903,8.389,6.322,6.932,6.506"/>
<polygon points="14.766,1.276 13.033,1.276 12.972,1.919 13.91,1.919 13.277,9.115 14.848,9.115 14.908,8.472 14.134,8.472 "/>
<g>
	<path d="M19.217,1.195c-0.316,0-0.581,0.264-0.581,0.581c0,0.315,0.265,0.581,0.581,0.581s0.581-0.266,0.581-0.581
		C19.798,1.459,19.533,1.195,19.217,1.195 M19.462,3.856h-1.601L17.8,4.497h0.816l-0.418,4.618h1.559l0.061-0.642h-0.773
		L19.462,3.856z"/>
	<path d="M25.187,3.754c-0.826,0-1.376,0.315-1.834,0.855c-0.459,0.55-0.744,1.325-0.744,2.243c0,1.702,0.652,2.364,1.946,2.364
		c0.744,0,1.335-0.234,1.59-0.387l0.092-0.775c-0.479,0.305-1.029,0.469-1.479,0.469c-0.805,0-1.335-0.377-1.335-1.448
		c1.773-0.202,3.21-0.876,3.21-2.13C26.634,4.345,26.197,3.754,25.187,3.754 M23.424,6.506c0.112-1.143,0.652-2.11,1.621-2.11
		c0.54,0,0.774,0.316,0.774,0.602C25.819,5.903,24.882,6.322,23.424,6.506"/>
	<path d="M32.603,1.195c-1.518,0-2.089,0.693-2.222,2.068L30.32,3.856h-0.805l-0.052,0.642h0.815l-0.326,4.117
		c-0.111,1.387-0.274,1.927-0.561,2.172c-0.275,0.234-0.54,0.314-0.898,0.314c-0.224,0-0.499-0.041-0.744-0.142L27.7,11.642
		c0.204,0.072,0.571,0.154,0.938,0.154c0.469,0,0.927-0.163,1.305-0.519c0.55-0.53,0.693-1.407,0.785-2.63l0.326-4.149h1.365
		l0.052-0.642h-1.377l0.062-0.561c0.122-1.142,0.703-1.458,1.549-1.458c0.275,0,0.51,0.041,0.765,0.123l0.052-0.632
		C33.276,1.225,32.92,1.195,32.603,1.195"/>
	<path d="M38.206,1.857c-1.498,0-2.691,0.684-2.691,2.09c0,1.141,0.734,1.621,1.55,1.854l1.265,0.357
		c0.764,0.214,1.11,0.438,1.11,1.008c0,0.766-0.602,1.173-1.509,1.173c-0.57,0-1.08-0.142-1.295-0.254V7.138h-1.141V8.86
		c0.622,0.244,1.885,0.377,2.405,0.377c1.691,0,2.741-0.836,2.741-2.253c0-1.253-0.906-1.702-1.723-1.916l-1.1-0.285
		c-0.643-0.163-1.102-0.377-1.102-0.999c0-0.551,0.438-1.03,1.498-1.03c0.551,0,0.918,0.113,1.071,0.173v0.857h1.08v-1.58
		C39.827,2.051,39.134,1.857,38.206,1.857"/>
	<path d="M47.803,1.981h-1.265L43.95,8.279h-0.612v0.836h2.487V8.279h-0.734l0.663-1.774h2.507l0.612,1.774h-0.652v0.836h2.609
		V8.279h-0.632L47.803,1.981z M46.08,5.608l0.785-2.019c0.122-0.315,0.163-0.509,0.192-0.651h0.021
		c0.03,0.151,0.071,0.336,0.183,0.651l0.704,2.019H46.08z"/>
	<path d="M56.552,1.981h-3.17v0.835h0.745l-0.041,5.464h-0.704v0.835h2.681V8.279h-0.826l0.021-2.203h0.612
		c0.336,0,0.488,0.113,0.784,0.622l0.979,1.662c0.418,0.693,0.693,0.754,1.294,0.754h0.663V8.279h-0.266
		c-0.234,0-0.428-0.092-0.632-0.428l-0.774-1.305c-0.244-0.408-0.51-0.744-0.907-0.775V5.751c0.907-0.093,1.702-0.652,1.702-1.886
		C58.713,2.826,58.02,1.981,56.552,1.981 M55.258,5.181l0.021-2.365h0.947c0.826,0,1.285,0.428,1.285,1.173
		c0,0.765-0.562,1.192-1.366,1.192H55.258z"/>
</g>
<polygon points="64.732,1.981 62.102,1.981 62.102,2.815 62.867,2.815 62.826,8.279 62.102,8.279 62.102,9.115 64.732,9.115 
	64.732,8.279 63.967,8.279 64.008,2.815 64.732,2.815 "/>
</svg>
